# xmcd
#
# Track frame offsets: 
#        150
#        26127
#        39237
#        53055
#        81525
#        97822
#        112775
#        129480
#        142517
#        157802
#
# Disc length: 2475 seconds
#
# Revision: 10
# Processed by: cddbd v1.5.2PL0 Copyright (c) Steve Scherf et al.
# Submitted via: ExactAudioCopy v0.90b4
#
DISCID=6b09a90a
DTITLE=John Martyn - Solid Air
DYEAR=1973
DGENRE=Folk/Rock
TTITLE0=Solid Air
TTITLE1=Over The Hill
TTITLE2=Don't Want To Know
TTITLE3=I'd Rather Be The Devil
TTITLE4=Go Down Easy
TTITLE5=Dreams By The Sea
TTITLE6=May You Never
TTITLE7=The Man In The Station
TTITLE8=The Easy Blues (Jelly Roll Blues/Gentle Blues)
TTITLE9=I'd Rather Be The Devil (Live)
EXTD=
EXTT0=
EXTT1=
EXTT2=
EXTT3=
EXTT4=
EXTT5=
EXTT6=
EXTT7=
EXTT8=
EXTT9=
PLAYORDER=
